<?xml version="1.0" encoding="UTF-8" standalone="no"?>
<!-- Created with Inkscape (http://www.inkscape.org/) -->

<svg
   width="200"
   height="100"
   viewBox="0 0 52.916665 26.458334"
   version="1.1"
   id="svg5"
   xmlns="http://www.w3.org/2000/svg"
   xmlns:svg="http://www.w3.org/2000/svg">
  <defs
     id="defs2">
    <rect
       x="94.924591"
       y="84.907417"
       width="159.28677"
       height="22.848442"
       id="rect10784" />
    <rect
       x="105.41876"
       y="24.327408"
       width="168.86082"
       height="79.660332"
       id="rect4396" />
  </defs>
  <g
     id="layer1">
    <path
       id="path857"
       style="fill:#000000;stroke:none;stroke-width:0.145952px;stroke-linecap:butt;stroke-linejoin:miter;stroke-opacity:1"
       d="m 29.920246,1.2301467 c 0.391074,-0.050929 0.642626,-0.035206 0.642626,-0.035206 L 41.147744,11.828741 c 1.716344,0.235129 3.0537,0.635766 4.201765,1.367896 0.446334,0.0072 0.883801,0.120212 1.280037,0.313899 0.718095,0.351013 1.333348,0.891028 1.826731,1.513556 0.364973,0.460505 0.670846,0.997885 0.786917,1.595719 0.03242,0.167018 0.0356,0.329587 0.03734,0.485702 0.0019,0.16701 0.152294,0.32564 0.289051,0.520026 0.115344,0.163943 0.249814,0.377985 0.209975,0.63282 -0.03829,0.244906 -0.0526,0.497483 -0.08105,0.755305 -0.01643,0.148843 -0.02434,0.323003 -0.101384,0.492628 -0.122193,0.269028 -0.398451,0.376954 -0.606244,0.470453 -0.484246,1.687077 -2.047293,2.909127 -3.594007,2.758419 -0.458718,0.203231 -0.94449,0.338273 -1.422574,0.45459 -0.0669,0.01629 -0.134502,0.03136 -0.20199,0.0461 l -2e-5,0.06108 c -0.0918,-3.65e-4 -0.182014,-0.0026 -0.270707,-0.0066 -0.591094,0.10807 -1.199072,0.148166 -1.803235,0.07044 -0.514161,-0.06618 -1.050632,-0.245652 -1.439216,-0.63882 -0.09671,-0.09784 -0.179522,-0.190275 -0.273549,-0.251 -0.441575,-0.285172 -0.952624,-0.484306 -1.408694,-0.81597 -0.171903,-0.125012 -0.368412,-0.292433 -0.428689,-0.54877 -0.05072,-0.215643 0.06018,-0.401803 0.160286,-0.532674 0.110866,-0.144943 0.224396,-0.262325 0.27098,-0.393791 0.0051,-0.01443 -0.0064,-0.03569 -0.02786,-0.04699 -0.254045,-0.134503 -0.503167,-0.268638 -0.758491,-0.387399 -0.195312,-0.09085 -0.460084,-0.162797 -0.636462,-0.392172 -0.133212,-0.17324 -0.130117,-0.400746 -0.04919,-0.579605 0.153272,-0.338794 0.425622,-0.567256 0.641921,-0.802388 0.0747,-0.08119 0.0953,-0.211528 0.114395,-0.361179 0.03325,-0.260656 0.03527,-0.578387 0.222519,-0.845611 0.04293,-0.06126 0.09419,-0.111428 0.150683,-0.153049 -0.929413,-0.581271 0.09889,-1.374095 0.09889,-1.374095 L 25.631383,5.7101151 C 26.315277,2.1352297 28.747016,1.3829358 29.920246,1.2301467 Z M 45.760744,13.479495 c 1.010951,0.746313 1.882933,1.787111 2.759379,3.252703 0.600962,1.004926 0.729561,2.027795 0.545242,2.938618 0.142207,-0.07278 0.26441,-0.153836 0.315538,-0.266413 0.05208,-0.114642 0.0612,-0.259312 0.07868,-0.417647 0.02752,-0.249329 0.04197,-0.507389 0.0827,-0.767925 0.02295,-0.146786 -0.06121,-0.302602 -0.168172,-0.454505 -0.117164,-0.166538 -0.329211,-0.36312 -0.332522,-0.657087 -0.0017,-0.154454 -0.006,-0.302956 -0.03313,-0.442825 -0.10582,-0.54507 -0.390475,-1.049312 -0.739507,-1.489703 -0.474807,-0.599091 -1.063487,-1.113155 -1.742743,-1.445184 -0.242502,-0.118539 -0.50069,-0.203297 -0.765462,-0.250032 z m -7.1967,3.244289 c -0.114318,0.03237 -0.216936,0.08996 -0.28095,0.181309 -0.134133,0.191426 -0.145525,0.459414 -0.181021,0.737667 -0.01892,0.148269 -0.03814,0.341698 -0.177706,0.493411 -0.229537,0.249518 -0.475449,0.463509 -0.600202,0.739268 -0.04945,0.109305 -0.04553,0.243265 0.02172,0.330733 0.116037,0.150896 0.327558,0.217368 0.546696,0.319296 0.263634,0.122627 0.516792,0.258521 0.770022,0.392592 0.116548,0.0617 0.191117,0.204233 0.14145,0.344391 -0.07034,0.198517 -0.209273,0.332651 -0.306644,0.459946 -0.08458,0.110561 -0.141318,0.226288 -0.117253,0.328625 0.03771,0.16005 0.177601,0.29309 0.335156,0.407668 0.422936,0.307568 0.929961,0.505041 1.398649,0.807724 0.130333,0.08417 0.224597,0.192619 0.315185,0.284275 0.335788,0.339748 0.817662,0.508347 1.298116,0.570188 0.247494,0.03186 0.496862,0.04248 0.746369,0.03634 -2.217142,-0.486505 -3.160967,-2.078605 -3.160967,-2.078605 l 0.206638,-0.1221 c 0,0 1.134816,1.95425 3.969077,2.089325 0.14351,-0.02689 0.28625,-0.05791 0.428019,-0.0924 0.349884,-0.08515 0.698318,-0.180095 1.033217,-0.301285 -0.500558,-0.138778 -0.988161,-0.432073 -1.424413,-0.914147 -0.904714,-5.448111 -3.797746,-4.813957 -4.961151,-5.014184 z" />
    <g
       aria-label="Ice &amp; Overrun"
       transform="matrix(0.26458333,0,0,0.26458333,-21.695153,-4.3343921)"
       id="text4394"
       style="font-size:32px;line-height:1;font-family:'Cantora One';-inkscape-font-specification:'Cantora One';letter-spacing:0.08px;white-space:pre;shape-inside:url(#rect4396)">
      <path
         d="m 112.36197,27.528125 q -0.096,1.024 -0.16,2.112 -0.032,1.056 -0.064,2.368 0,1.28 -0.032,2.88 0,1.6 0,3.648 0,1.92 0,3.488 0,1.536 0,2.88 0.032,1.344 0.032,2.56 0.032,1.216 0.064,2.464 h -4.512 q 0.032,-1.536 0.064,-2.688 0.064,-1.184 0.096,-2.432 0.032,-1.28 0.064,-2.912 0.032,-1.632 0.032,-4.096 0,-2.464 -0.032,-4.896 -0.032,-2.464 -0.128,-5.056 z"
         id="path1042" />
      <path
         d="m 115.60991,42.984125 q 0,-2.4 0.512,-4.16 0.544,-1.792 1.504,-2.944 0.96,-1.184 2.24,-1.76 1.312,-0.576 2.848,-0.576 0.992,0 1.632,0.192 0.672,0.16 1.472,0.16 0.352,0 0.672,-0.064 0.32,-0.064 0.96,-0.256 l 0.352,6.208 -3.136,0.416 q 0.032,-0.32 0.032,-0.576 0.032,-0.288 0.032,-0.608 0,-1.76 -0.64,-2.496 -0.608,-0.768 -1.312,-0.768 -1.536,0 -2.272,1.6 -0.736,1.6 -0.736,4.704 0,2.624 0.832,3.776 0.864,1.152 2.496,1.152 1.12,0 2.208,-0.384 1.12,-0.416 1.952,-0.768 v 2.816 q -1.024,0.928 -2.464,1.28 -1.408,0.384 -2.88,0.384 -1.184,0 -2.336,-0.288 -1.12,-0.288 -2.016,-1.056 -0.864,-0.8 -1.408,-2.24 -0.544,-1.44 -0.544,-3.744 z"
         id="path1044" />
      <path
         d="m 134.24988,42.696125 q 0.16,2.432 0.992,3.424 0.832,0.96 2.528,0.96 1.28,0 2.4,-0.384 1.152,-0.384 1.888,-0.704 v 2.656 q -1.024,0.928 -2.56,1.28 -1.536,0.384 -2.976,0.384 -1.184,0 -2.336,-0.288 -1.152,-0.288 -2.08,-1.088 -0.896,-0.832 -1.472,-2.272 -0.544,-1.472 -0.544,-3.84 0,-2.336 0.576,-4.064 0.576,-1.76 1.568,-2.912 1.024,-1.152 2.368,-1.728 1.376,-0.576 2.976,-0.576 1.632,0 2.656,0.576 1.056,0.544 1.632,1.408 0.608,0.864 0.8,1.92 0.224,1.056 0.224,2.048 0,1.024 -0.16,1.856 -0.128,0.832 -0.352,1.344 z m 2.752,-6.816 q -1.248,0 -1.952,1.088 -0.672,1.056 -0.8,3.36 h 5.28 q 0,-0.128 0,-0.32 0.032,-0.192 0.032,-0.352 0,-0.512 -0.096,-1.152 -0.096,-0.672 -0.384,-1.248 -0.288,-0.576 -0.8,-0.96 -0.48,-0.416 -1.28,-0.416 z"
         id="path1046" />
      <path
         d="m 171.84986,36.264125 -0.288,2.88 -3.04,0.16 q 0.16,1.184 0.224,2.08 0.096,0.896 0.096,1.696 0,0.64 -0.064,1.248 -0.032,0.608 -0.192,1.152 1.44,1.216 2.816,2.336 1.408,1.088 2.752,2.112 h -5.184 l -2.016,-1.504 q -0.928,0.864 -2.368,1.376 -1.44,0.512 -3.584,0.512 -1.696,0 -3.2,-0.384 -1.504,-0.352 -2.656,-1.152 -1.12,-0.8 -1.792,-2.08 -0.64,-1.28 -0.64,-3.136 0,-2.112 0.832,-3.648 0.832,-1.536 2.176,-2.72 -0.704,-1.216 -1.088,-2.464 -0.384,-1.248 -0.384,-2.496 0,-1.632 0.608,-2.624 0.64,-0.992 1.568,-1.536 0.96,-0.576 2.016,-0.736 1.088,-0.192 1.952,-0.192 2.048,0 3.744,0.704 v 3.328 q -0.736,-0.448 -1.792,-0.8 -1.024,-0.384 -1.952,-0.384 -0.352,0 -0.8,0.096 -0.416,0.064 -0.8,0.32 -0.352,0.256 -0.608,0.704 -0.256,0.448 -0.256,1.152 0,1.12 0.608,2.4 0.64,1.28 1.696,2.656 1.056,1.376 2.464,2.848 1.44,1.44 3.04,2.88 0,-0.512 -0.064,-1.344 -0.064,-0.832 -0.16,-1.696 -0.064,-0.896 -0.16,-1.728 -0.064,-0.864 -0.096,-1.44 z m -7.488,10.112 q -1.76,-1.44 -3.456,-3.008 -1.696,-1.568 -3.104,-3.264 -0.448,0.704 -0.672,1.536 -0.192,0.832 -0.192,1.76 0,1.856 0.896,2.944 0.896,1.056 3.168,1.056 1.184,0 1.984,-0.288 0.832,-0.288 1.376,-0.736 z"
         id="path1048" />
      <path
         d="m 116.45797,62.024125 q -2.496,0 -3.968,2.272 -1.44,2.272 -1.44,6.528 0,4.224 1.216,6.464 1.248,2.208 4.032,2.208 1.216,0 2.208,-0.608 1.024,-0.64 1.728,-1.824 0.736,-1.184 1.12,-2.848 0.416,-1.664 0.416,-3.776 0,-2.016 -0.256,-3.584 -0.224,-1.568 -0.832,-2.624 -0.608,-1.088 -1.632,-1.632 -1.024,-0.576 -2.592,-0.576 z m -9.792,8.896 q 0,-2.592 0.704,-4.768 0.704,-2.176 2.016,-3.712 1.344,-1.568 3.2,-2.432 1.856,-0.864 4.16,-0.864 2.208,0 3.936,0.8 1.76,0.768 2.944,2.208 1.216,1.44 1.856,3.488 0.64,2.048 0.64,4.544 0,2.624 -0.736,4.864 -0.704,2.208 -2.016,3.84 -1.312,1.6 -3.168,2.528 -1.856,0.896 -4.128,0.896 -2.208,0 -3.968,-0.832 -1.728,-0.864 -2.944,-2.368 -1.216,-1.536 -1.856,-3.616 -0.64,-2.08 -0.64,-4.576 z"
         id="path1050" />
      <path
         d="m 143.25793,65.544125 q -1.216,4.544 -2.656,8.512 -1.44,3.936 -3.2,7.872 l -3.872,0.384 q -1.664,-3.936 -3.04,-7.872 -1.344,-3.968 -2.496,-8.512 l 4.128,-0.384 q 0.672,3.296 1.472,6.496 0.832,3.2 1.856,6.272 1.12,-3.04 2.016,-6.048 0.928,-3.04 1.664,-6.336 z"
         id="path1052" />
      <path
         d="m 148.61786,74.696125 q 0.16,2.432 0.992,3.424 0.832,0.96 2.528,0.96 1.28,0 2.4,-0.384 1.152,-0.384 1.888,-0.704 v 2.656 q -1.024,0.928 -2.56,1.28 -1.536,0.384 -2.976,0.384 -1.184,0 -2.336,-0.288 -1.152,-0.288 -2.08,-1.088 -0.896,-0.832 -1.472,-2.272 -0.544,-1.472 -0.544,-3.84 0,-2.336 0.576,-4.064 0.576,-1.76 1.568,-2.912 1.024,-1.152 2.368,-1.728 1.376,-0.576 2.976,-0.576 1.632,0 2.656,0.576 1.056,0.544 1.632,1.408 0.608,0.864 0.8,1.92 0.224,1.056 0.224,2.048 0,1.024 -0.16,1.856 -0.128,0.832 -0.352,1.344 z m 2.752,-6.816 q -1.248,0 -1.952,1.088 -0.672,1.056 -0.8,3.36 h 5.28 q 0,-0.128 0,-0.32 0.032,-0.192 0.032,-0.352 0,-0.512 -0.096,-1.152 -0.096,-0.672 -0.384,-1.248 -0.288,-0.576 -0.8,-0.96 -0.48,-0.416 -1.28,-0.416 z"
         id="path1054" />
      <path
         d="m 162.74585,65.352125 q 0.672,1.056 1.056,1.856 0.384,0.768 0.544,1.632 0.32,-0.48 0.8,-1.024 0.48,-0.576 1.088,-1.056 0.608,-0.512 1.344,-0.896 0.736,-0.384 1.568,-0.512 l 0.288,4.544 q -1.568,0 -2.912,0.288 -1.344,0.256 -1.92,0.896 0.032,0.608 0.032,1.344 0,0.704 0,1.6 0,1.024 0.032,2.208 0.032,1.152 0.064,2.24 0.064,1.056 0.128,1.984 0.064,0.928 0.128,1.472 h -4.512 q 0.032,-0.672 0.064,-1.568 0.032,-0.896 0.064,-1.856 0.032,-0.96 0.032,-1.952 0.032,-1.024 0.032,-1.952 0,-1.472 -0.064,-2.4 -0.064,-0.96 -0.256,-1.632 -0.192,-0.704 -0.512,-1.28 -0.32,-0.576 -0.832,-1.344 z"
         id="path1056" />
      <path
         d="m 174.44181,65.352125 q 0.672,1.056 1.056,1.856 0.384,0.768 0.544,1.632 0.32,-0.48 0.8,-1.024 0.48,-0.576 1.088,-1.056 0.608,-0.512 1.344,-0.896 0.736,-0.384 1.568,-0.512 l 0.288,4.544 q -1.568,0 -2.912,0.288 -1.344,0.256 -1.92,0.896 0.032,0.608 0.032,1.344 0,0.704 0,1.6 0,1.024 0.032,2.208 0.032,1.152 0.064,2.24 0.064,1.056 0.128,1.984 0.064,0.928 0.128,1.472 h -4.512 q 0.032,-0.672 0.064,-1.568 0.032,-0.896 0.064,-1.856 0.032,-0.96 0.032,-1.952 0.032,-1.024 0.032,-1.952 0,-1.472 -0.064,-2.4 -0.064,-0.96 -0.256,-1.632 -0.192,-0.704 -0.512,-1.28 -0.32,-0.576 -0.832,-1.344 z"
         id="path1058" />
      <path
         d="m 194.45778,82.312125 q -0.64,-0.928 -1.024,-1.6 -0.384,-0.672 -0.576,-1.408 -0.48,0.544 -1.024,1.088 -0.544,0.512 -1.216,0.96 -0.64,0.416 -1.376,0.672 -0.736,0.288 -1.6,0.288 -0.8,0 -1.568,-0.288 -0.736,-0.288 -1.312,-0.96 -0.576,-0.672 -0.928,-1.824 -0.352,-1.152 -0.352,-2.88 0,-0.416 0,-1.28 0.032,-0.896 0.064,-1.856 0.032,-0.992 0.032,-1.888 0.032,-0.896 0.032,-1.376 0,-1.056 -0.16,-2.016 -0.128,-0.992 -0.48,-1.632 l 4.384,-0.768 q 0.224,0.736 0.256,1.6 0.064,0.864 0.064,1.504 0,0.928 -0.064,1.856 -0.032,0.928 -0.096,1.824 -0.032,0.864 -0.096,1.664 -0.032,0.768 -0.032,1.344 0,1.888 0.64,2.592 0.64,0.704 1.76,0.704 0.928,0 1.6,-0.32 0.672,-0.32 1.216,-0.768 -0.032,-0.576 -0.032,-1.28 0,-0.736 0,-1.664 0,-1.472 0,-2.656 0,-1.184 -0.032,-2.208 0,-1.024 -0.032,-1.92 0,-0.928 -0.032,-1.888 h 4.32 q -0.032,0.768 -0.064,1.728 -0.032,0.96 -0.096,2.048 -0.032,1.056 -0.064,2.208 -0.032,1.12 -0.032,2.176 0,1.248 0.064,2.048 0.064,0.768 0.256,1.376 0.192,0.576 0.512,1.088 0.32,0.48 0.832,1.12 z"
         id="path1060" />
      <path
         d="m 203.30573,65.544125 q 0.64,0.928 1.024,1.632 0.384,0.704 0.576,1.44 0.48,-0.512 1.088,-1.056 0.608,-0.576 1.28,-0.992 0.704,-0.448 1.504,-0.736 0.8,-0.288 1.664,-0.288 0.8,0 1.536,0.288 0.768,0.288 1.344,0.96 0.576,0.672 0.928,1.824 0.352,1.152 0.352,2.88 0,0.448 -0.032,1.312 0,0.864 -0.032,1.856 -0.032,0.96 -0.064,1.856 0,0.896 0,1.376 0,1.056 0.128,2.048 0.16,0.96 0.512,1.6 l -4.448,0.768 q -0.224,-0.736 -0.288,-1.6 -0.032,-0.864 -0.032,-1.504 0,-0.896 0.032,-1.824 0.064,-0.96 0.096,-1.824 0.064,-0.896 0.096,-1.664 0.064,-0.8 0.064,-1.376 0,-1.888 -0.64,-2.592 -0.64,-0.704 -1.76,-0.704 -0.928,0 -1.728,0.288 -0.768,0.288 -1.376,0.704 0.064,0.608 0.064,1.344 0,0.736 0,1.696 0,1.472 0,2.656 0,1.184 0,2.208 0.032,1.024 0.032,1.952 0.032,0.896 0.064,1.856 h -4.32 q 0.032,-0.768 0.064,-1.728 0.032,-0.96 0.064,-2.016 0.064,-1.088 0.096,-2.208 0.032,-1.152 0.032,-2.208 0,-1.248 -0.064,-2.016 -0.064,-0.8 -0.256,-1.376 -0.192,-0.608 -0.512,-1.088 -0.32,-0.512 -0.832,-1.152 z"
         id="path1062" />
    </g>
    <g
       aria-label="Frozen Dessert Info."
       transform="matrix(0.26458333,0,0,0.26458333,-17.927877,-3.2834062)"
       id="text10782"
       style="font-size:16px;line-height:1.25;letter-spacing:0.08px;white-space:pre;shape-inside:url(#rect10784)">
      <path
         d="M 96.064453,99.577744 V 87.124619 h 4.335937 v 1.382813 h -2.851562 v 5.265625 h 2.453122 v 1.375 h -2.453122 v 4.429687 z"
         style="font-family:Voltaire;-inkscape-font-specification:Voltaire"
         id="path1101" />
      <path
         d="m 101.41789,99.577744 v -8.445312 h 0.91406 l 0.28125,0.828125 q 0.49219,-0.375 1.0625,-0.59375 0.57032,-0.21875 1.17969,-0.21875 v 1.53125 q -0.63281,0 -1.125,0.140625 -0.49219,0.132812 -0.85156,0.375 v 6.382812 z"
         style="font-family:Voltaire;-inkscape-font-specification:Voltaire"
         id="path1103" />
      <path
         d="m 108.60727,99.726182 q -1.32032,0 -2.1875,-1.070313 -0.86719,-1.070312 -0.86719,-3.226562 0,-2.15625 0.86719,-3.226563 0.86718,-1.070312 2.1875,-1.070312 1.32031,0 2.1875,1.070312 0.875,1.070313 0.875,3.226563 0,2.15625 -0.875,3.226562 -0.86719,1.070313 -2.1875,1.070313 z m 0,-1.367188 q 0.42187,0 0.78125,-0.265625 0.35937,-0.265625 0.57812,-0.898437 0.21875,-0.640625 0.21875,-1.765625 0,-1.125 -0.21875,-1.757813 -0.21875,-0.640625 -0.57812,-0.90625 -0.35938,-0.265625 -0.78125,-0.265625 -0.41407,0 -0.77344,0.265625 -0.35938,0.265625 -0.57813,0.90625 -0.21875,0.632813 -0.21875,1.757813 0,1.125 0.21875,1.765625 0.21875,0.632812 0.57813,0.898437 0.35937,0.265625 0.77344,0.265625 z"
         style="font-family:Voltaire;-inkscape-font-specification:Voltaire"
         id="path1105" />
      <path
         d="m 112.0857,99.577744 3.32813,-6.984375 h -2.75 v -1.3125 h 4.89844 l -3.34375,6.984375 h 3.09375 v 1.3125 z"
         style="font-family:Voltaire;-inkscape-font-specification:Voltaire"
         id="path1107" />
      <path
         d="m 121.50164,99.726182 q -0.95312,0 -1.71094,-0.515625 -0.75,-0.515625 -1.1875,-1.492188 -0.42968,-0.976562 -0.42968,-2.34375 0,-1.414062 0.44531,-2.351562 0.44531,-0.945313 1.16406,-1.414063 0.72656,-0.476562 1.55469,-0.476562 0.98437,0 1.625,0.609375 0.64062,0.601562 0.85937,1.703125 0.22657,1.09375 -0.0547,2.570312 h -4.11719 q 0.0937,0.898438 0.40625,1.421875 0.32031,0.523438 0.75,0.75 0.42969,0.21875 0.85937,0.21875 0.41407,0 0.82032,-0.140625 0.40625,-0.140625 0.61718,-0.289062 l 0.54688,1.1875 q -0.375,0.21875 -0.96094,0.390625 -0.58594,0.171875 -1.1875,0.171875 z m -0.19531,-7.226563 q -0.63281,0 -1.09375,0.5625 -0.45313,0.554688 -0.5625,1.648438 h 2.8125 q 0.0625,-0.875 -0.0937,-1.351563 -0.14844,-0.484375 -0.42969,-0.671875 -0.28125,-0.1875 -0.63281,-0.1875 z"
         style="font-family:Voltaire;-inkscape-font-specification:Voltaire"
         id="path1109" />
      <path
         d="m 125.4332,99.577744 v -8.445312 h 0.95313 l 0.36719,0.78125 q 0.33593,-0.34375 0.80468,-0.585938 0.46875,-0.25 1.03125,-0.25 1.38282,0 1.92969,0.789063 0.55469,0.789062 0.55469,2.257812 v 5.453125 h -1.42188 v -5.4375 q 0,-0.796875 -0.32812,-1.21875 -0.32813,-0.429687 -0.97656,-0.429687 -0.375,0 -0.77344,0.203125 -0.39844,0.195312 -0.71875,0.570312 v 6.3125 z"
         style="font-family:Voltaire;-inkscape-font-specification:Voltaire"
         id="path1111" />
      <path
         d="M 136.83539,99.726182 V 86.991807 q 0.75,0.03125 1.44531,0.164062 1.36719,0.25 2.33594,1.070313 0.97656,0.820312 1.5,2.109375 0.52344,1.289062 0.52344,2.945312 0,1.640625 -0.47656,2.945313 -0.46875,1.296875 -1.42969,2.148437 -0.95313,0.84375 -2.39844,1.125 -0.35937,0.07031 -0.73437,0.132813 -0.36719,0.07031 -0.76563,0.09375 z m 1.48438,-1.609375 q 0.6875,-0.171875 1.32812,-0.679688 0.64063,-0.515625 1.05469,-1.515625 0.42187,-1 0.42187,-2.640625 0,-1.617187 -0.42187,-2.59375 -0.41406,-0.984375 -1.05469,-1.46875 -0.64062,-0.484375 -1.32812,-0.617187 z"
         style="font-family:Voltaire;-inkscape-font-specification:Voltaire"
         id="path1113" />
      <path
         d="m 147.11852,99.726182 q -0.95313,0 -1.71094,-0.515625 -0.75,-0.515625 -1.1875,-1.492188 -0.42969,-0.976562 -0.42969,-2.34375 0,-1.414062 0.44531,-2.351562 0.44532,-0.945313 1.16407,-1.414063 0.72656,-0.476562 1.55468,-0.476562 0.98438,0 1.625,0.609375 0.64063,0.601562 0.85938,1.703125 0.22656,1.09375 -0.0547,2.570312 h -4.11719 q 0.0937,0.898438 0.40625,1.421875 0.32032,0.523438 0.75,0.75 0.42969,0.21875 0.85938,0.21875 0.41406,0 0.82031,-0.140625 0.40625,-0.140625 0.61719,-0.289062 l 0.54687,1.1875 q -0.375,0.21875 -0.96093,0.390625 -0.58594,0.171875 -1.1875,0.171875 z m -0.19532,-7.226563 q -0.63281,0 -1.09375,0.5625 -0.45312,0.554688 -0.5625,1.648438 h 2.8125 q 0.0625,-0.875 -0.0937,-1.351563 -0.14843,-0.484375 -0.42968,-0.671875 -0.28125,-0.1875 -0.63282,-0.1875 z"
         style="font-family:Voltaire;-inkscape-font-specification:Voltaire"
         id="path1115" />
      <path
         d="m 152.5032,99.718369 q -0.59375,0 -1.07812,-0.15625 -0.47656,-0.15625 -0.875,-0.398437 l 0.54687,-1.226563 q 0.3125,0.195313 0.6875,0.320313 0.38282,0.125 0.75,0.125 0.48438,0 0.79688,-0.25 0.3125,-0.257813 0.3125,-0.671875 0,-0.4375 -0.32031,-0.75 -0.3125,-0.320313 -0.71875,-0.648438 l -0.53907,-0.4375 q -0.65625,-0.53125 -1,-1.09375 -0.33593,-0.5625 -0.33593,-1.21875 0,-0.585937 0.29687,-1.078125 0.30469,-0.5 0.83594,-0.796875 0.53906,-0.304687 1.24219,-0.304687 0.92968,0 1.78125,0.421875 l -0.59375,1.296875 q -0.28907,-0.210938 -0.60157,-0.304688 -0.30468,-0.09375 -0.61718,-0.09375 -0.4375,0 -0.70313,0.25 -0.25781,0.242188 -0.25781,0.5625 0,0.265625 0.17969,0.515625 0.17968,0.25 0.60937,0.617188 l 0.625,0.53125 q 0.8125,0.6875 1.16406,1.25 0.35157,0.5625 0.35157,1.273437 0,0.640625 -0.32813,1.15625 -0.32812,0.515625 -0.90625,0.8125 -0.57031,0.296875 -1.30469,0.296875 z"
         style="font-family:Voltaire;-inkscape-font-specification:Voltaire"
         id="path1117" />
      <path
         d="m 157.75508,99.718369 q -0.59375,0 -1.07813,-0.15625 -0.47656,-0.15625 -0.875,-0.398437 l 0.54688,-1.226563 q 0.3125,0.195313 0.6875,0.320313 0.38281,0.125 0.75,0.125 0.48437,0 0.79687,-0.25 0.3125,-0.257813 0.3125,-0.671875 0,-0.4375 -0.32031,-0.75 -0.3125,-0.320313 -0.71875,-0.648438 l -0.53906,-0.4375 q -0.65625,-0.53125 -1,-1.09375 -0.33594,-0.5625 -0.33594,-1.21875 0,-0.585937 0.29687,-1.078125 0.30469,-0.5 0.83594,-0.796875 0.53906,-0.304687 1.24219,-0.304687 0.92969,0 1.78125,0.421875 l -0.59375,1.296875 q -0.28906,-0.210938 -0.60156,-0.304688 -0.30469,-0.09375 -0.61719,-0.09375 -0.4375,0 -0.70313,0.25 -0.25781,0.242188 -0.25781,0.5625 0,0.265625 0.17969,0.515625 0.17969,0.25 0.60937,0.617188 l 0.625,0.53125 q 0.8125,0.6875 1.16407,1.25 0.35156,0.5625 0.35156,1.273437 0,0.640625 -0.32813,1.15625 -0.32812,0.515625 -0.90625,0.8125 -0.57031,0.296875 -1.30468,0.296875 z"
         style="font-family:Voltaire;-inkscape-font-specification:Voltaire"
         id="path1119" />
      <path
         d="m 164.54601,99.726182 q -0.95312,0 -1.71093,-0.515625 -0.75,-0.515625 -1.1875,-1.492188 -0.42969,-0.976562 -0.42969,-2.34375 0,-1.414062 0.44531,-2.351562 0.44531,-0.945313 1.16406,-1.414063 0.72657,-0.476562 1.55469,-0.476562 0.98438,0 1.625,0.609375 0.64063,0.601562 0.85938,1.703125 0.22656,1.09375 -0.0547,2.570312 h -4.11719 q 0.0937,0.898438 0.40625,1.421875 0.32031,0.523438 0.75,0.75 0.42969,0.21875 0.85938,0.21875 0.41406,0 0.82031,-0.140625 0.40625,-0.140625 0.61719,-0.289062 l 0.54687,1.1875 q -0.375,0.21875 -0.96094,0.390625 -0.58593,0.171875 -1.1875,0.171875 z m -0.19531,-7.226563 q -0.63281,0 -1.09375,0.5625 -0.45312,0.554688 -0.5625,1.648438 h 2.8125 q 0.0625,-0.875 -0.0937,-1.351563 -0.14844,-0.484375 -0.42969,-0.671875 -0.28125,-0.1875 -0.63281,-0.1875 z"
         style="font-family:Voltaire;-inkscape-font-specification:Voltaire"
         id="path1121" />
      <path
         d="m 168.47758,99.577744 v -8.445312 h 0.91406 l 0.28125,0.828125 q 0.49219,-0.375 1.0625,-0.59375 0.57031,-0.21875 1.17969,-0.21875 v 1.53125 q -0.63282,0 -1.125,0.140625 -0.49219,0.132812 -0.85157,0.375 v 6.382812 z"
         style="font-family:Voltaire;-inkscape-font-specification:Voltaire"
         id="path1123" />
      <path
         d="m 176.54977,99.718369 q -1.11719,0.0078 -1.75,-0.289062 -0.625,-0.304688 -0.88282,-0.898438 -0.25,-0.601562 -0.25,-1.46875 v -4.46875 h -0.63281 v -1.3125 h 0.63281 v -2.765625 h 1.41407 v 2.765625 h 1.35156 v 1.3125 h -1.35156 v 4.484375 q 0,0.390625 0.0937,0.6875 0.0937,0.289063 0.40625,0.4375 0.3125,0.148438 0.96875,0.125 z"
         style="font-family:Voltaire;-inkscape-font-specification:Voltaire"
         id="path1125" />
      <path
         d="M 182.24883,99.577744 V 87.132432 h 1.48437 v 12.445312 z"
         style="font-family:Voltaire;-inkscape-font-specification:Voltaire"
         id="path1127" />
      <path
         d="m 185.89133,99.577744 v -8.445312 h 0.95312 l 0.36719,0.78125 q 0.33594,-0.34375 0.80469,-0.585938 0.46875,-0.25 1.03125,-0.25 1.38281,0 1.92968,0.789063 0.55469,0.789062 0.55469,2.257812 v 5.453125 h -1.42187 v -5.4375 q 0,-0.796875 -0.32813,-1.21875 -0.32812,-0.429687 -0.97656,-0.429687 -0.375,0 -0.77344,0.203125 -0.39844,0.195312 -0.71875,0.570312 v 6.3125 z"
         style="font-family:Voltaire;-inkscape-font-specification:Voltaire"
         id="path1129" />
      <path
         d="m 193.7057,99.577744 v -6.984375 h -0.64843 v -1.3125 h 0.64843 v -1.71875 q 0,-0.726562 0.35157,-1.328125 0.35937,-0.609375 1.00781,-0.953125 0.64844,-0.34375 1.52344,-0.296875 v 1.367188 q -0.75,-0.0625 -1.10938,0.34375 -0.35156,0.398437 -0.35156,0.882812 v 1.703125 h 1.41406 v 1.3125 h -1.41406 v 6.984375 z"
         style="font-family:Voltaire;-inkscape-font-specification:Voltaire"
         id="path1131" />
      <path
         d="m 200.41852,99.726182 q -1.32031,0 -2.1875,-1.070313 -0.86719,-1.070312 -0.86719,-3.226562 0,-2.15625 0.86719,-3.226563 0.86719,-1.070312 2.1875,-1.070312 1.32031,0 2.1875,1.070312 0.875,1.070313 0.875,3.226563 0,2.15625 -0.875,3.226562 -0.86719,1.070313 -2.1875,1.070313 z m 0,-1.367188 q 0.42187,0 0.78125,-0.265625 0.35937,-0.265625 0.57812,-0.898437 0.21875,-0.640625 0.21875,-1.765625 0,-1.125 -0.21875,-1.757813 -0.21875,-0.640625 -0.57812,-0.90625 -0.35938,-0.265625 -0.78125,-0.265625 -0.41406,0 -0.77344,0.265625 -0.35937,0.265625 -0.57812,0.90625 -0.21875,0.632813 -0.21875,1.757813 0,1.125 0.21875,1.765625 0.21875,0.632812 0.57812,0.898437 0.35938,0.265625 0.77344,0.265625 z"
         style="font-family:Voltaire;-inkscape-font-specification:Voltaire"
         id="path1133" />
      <path
         d="m 205.20164,99.718369 q -0.49219,0 -0.78907,-0.3125 -0.29687,-0.3125 -0.29687,-0.726562 0,-0.414063 0.29687,-0.726563 0.29688,-0.320312 0.78907,-0.320312 0.49218,0 0.78906,0.320312 0.29687,0.3125 0.29687,0.726563 0,0.414062 -0.29687,0.726562 -0.29688,0.3125 -0.78906,0.3125 z"
         style="font-family:Voltaire;-inkscape-font-specification:Voltaire"
         id="path1135" />
    </g>
  </g>
</svg>
